<?xml version="1.0" standalone="no"?>
<svg xmlns:xlink="http://www.w3.org/1999/xlink" id="wave" style="transform:rotate(0deg); transition: 0.3s" viewBox="0 0 1440 490" version="1.1" xmlns="http://www.w3.org/2000/svg"><defs><linearGradient id="sw-gradient-0" x1="0" x2="0" y1="1" y2="0"><stop stop-color="rgba(164, 88, 64, 1)" offset="0%"/><stop stop-color="rgba(164, 88, 64, 1)" offset="100%"/></linearGradient></defs><path style="transform:translate(0, 0px); opacity:1" fill="url(#sw-gradient-0)" d="M0,245L240,261.3C480,278,960,310,1440,269.5C1920,229,2400,114,2880,130.7C3360,147,3840,294,4320,326.7C4800,359,5280,278,5760,220.5C6240,163,6720,131,7200,98C7680,65,8160,33,8640,81.7C9120,131,9600,261,10080,269.5C10560,278,11040,163,11520,155.2C12000,147,12480,245,12960,253.2C13440,261,13920,180,14400,138.8C14880,98,15360,98,15840,98C16320,98,16800,98,17280,130.7C17760,163,18240,229,18720,261.3C19200,294,19680,294,20160,269.5C20640,245,21120,196,21600,220.5C22080,245,22560,343,23040,326.7C23520,310,24000,180,24480,163.3C24960,147,25440,245,25920,294C26400,343,26880,343,27360,351.2C27840,359,28320,376,28800,334.8C29280,294,29760,196,30240,179.7C30720,163,31200,229,31680,277.7C32160,327,32640,359,33120,334.8C33600,310,34080,229,34320,187.8L34560,147L34560,490L34320,490C34080,490,33600,490,33120,490C32640,490,32160,490,31680,490C31200,490,30720,490,30240,490C29760,490,29280,490,28800,490C28320,490,27840,490,27360,490C26880,490,26400,490,25920,490C25440,490,24960,490,24480,490C24000,490,23520,490,23040,490C22560,490,22080,490,21600,490C21120,490,20640,490,20160,490C19680,490,19200,490,18720,490C18240,490,17760,490,17280,490C16800,490,16320,490,15840,490C15360,490,14880,490,14400,490C13920,490,13440,490,12960,490C12480,490,12000,490,11520,490C11040,490,10560,490,10080,490C9600,490,9120,490,8640,490C8160,490,7680,490,7200,490C6720,490,6240,490,5760,490C5280,490,4800,490,4320,490C3840,490,3360,490,2880,490C2400,490,1920,490,1440,490C960,490,480,490,240,490L0,490Z"/><defs><linearGradient id="sw-gradient-1" x1="0" x2="0" y1="1" y2="0"><stop stop-color="rgba(164, 88, 64, 1)" offset="0%"/><stop stop-color="rgba(164, 88, 64, 1)" offset="100%"/></linearGradient></defs><path style="transform:translate(0, 50px); opacity:0.9" fill="url(#sw-gradient-1)" d="M0,245L240,236.8C480,229,960,212,1440,228.7C1920,245,2400,294,2880,261.3C3360,229,3840,114,4320,106.2C4800,98,5280,196,5760,212.3C6240,229,6720,163,7200,122.5C7680,82,8160,65,8640,89.8C9120,114,9600,180,10080,204.2C10560,229,11040,212,11520,196C12000,180,12480,163,12960,138.8C13440,114,13920,82,14400,130.7C14880,180,15360,310,15840,351.2C16320,392,16800,343,17280,302.2C17760,261,18240,229,18720,187.8C19200,147,19680,98,20160,98C20640,98,21120,147,21600,212.3C22080,278,22560,359,23040,400.2C23520,441,24000,441,24480,392C24960,343,25440,245,25920,187.8C26400,131,26880,114,27360,106.2C27840,98,28320,98,28800,155.2C29280,212,29760,327,30240,334.8C30720,343,31200,245,31680,179.7C32160,114,32640,82,33120,73.5C33600,65,34080,82,34320,89.8L34560,98L34560,490L34320,490C34080,490,33600,490,33120,490C32640,490,32160,490,31680,490C31200,490,30720,490,30240,490C29760,490,29280,490,28800,490C28320,490,27840,490,27360,490C26880,490,26400,490,25920,490C25440,490,24960,490,24480,490C24000,490,23520,490,23040,490C22560,490,22080,490,21600,490C21120,490,20640,490,20160,490C19680,490,19200,490,18720,490C18240,490,17760,490,17280,490C16800,490,16320,490,15840,490C15360,490,14880,490,14400,490C13920,490,13440,490,12960,490C12480,490,12000,490,11520,490C11040,490,10560,490,10080,490C9600,490,9120,490,8640,490C8160,490,7680,490,7200,490C6720,490,6240,490,5760,490C5280,490,4800,490,4320,490C3840,490,3360,490,2880,490C2400,490,1920,490,1440,490C960,490,480,490,240,490L0,490Z"/></svg>