<?xml version="1.0" standalone="no"?>
<svg xmlns:xlink="http://www.w3.org/1999/xlink" id="wave" style="transform:rotate(0deg); transition: 0.3s" viewBox="0 0 1440 490" version="1.1" xmlns="http://www.w3.org/2000/svg"><defs><linearGradient id="sw-gradient-0" x1="0" x2="0" y1="1" y2="0"><stop stop-color="rgba(114, 71, 57, 1)" offset="0%"/><stop stop-color="rgba(114, 71, 57, 1)" offset="100%"/></linearGradient></defs><path style="transform:translate(0, 0px); opacity:1" fill="url(#sw-gradient-0)" d="M0,196L240,220.5C480,245,960,294,1440,269.5C1920,245,2400,147,2880,122.5C3360,98,3840,147,4320,163.3C4800,180,5280,163,5760,171.5C6240,180,6720,212,7200,236.8C7680,261,8160,278,8640,285.8C9120,294,9600,294,10080,285.8C10560,278,11040,261,11520,269.5C12000,278,12480,310,12960,285.8C13440,261,13920,180,14400,130.7C14880,82,15360,65,15840,114.3C16320,163,16800,278,17280,277.7C17760,278,18240,163,18720,106.2C19200,49,19680,49,20160,49C20640,49,21120,49,21600,114.3C22080,180,22560,310,23040,375.7C23520,441,24000,441,24480,383.8C24960,327,25440,212,25920,196C26400,180,26880,261,27360,285.8C27840,310,28320,278,28800,285.8C29280,294,29760,343,30240,318.5C30720,294,31200,196,31680,155.2C32160,114,32640,131,33120,138.8C33600,147,34080,147,34320,147L34560,147L34560,490L34320,490C34080,490,33600,490,33120,490C32640,490,32160,490,31680,490C31200,490,30720,490,30240,490C29760,490,29280,490,28800,490C28320,490,27840,490,27360,490C26880,490,26400,490,25920,490C25440,490,24960,490,24480,490C24000,490,23520,490,23040,490C22560,490,22080,490,21600,490C21120,490,20640,490,20160,490C19680,490,19200,490,18720,490C18240,490,17760,490,17280,490C16800,490,16320,490,15840,490C15360,490,14880,490,14400,490C13920,490,13440,490,12960,490C12480,490,12000,490,11520,490C11040,490,10560,490,10080,490C9600,490,9120,490,8640,490C8160,490,7680,490,7200,490C6720,490,6240,490,5760,490C5280,490,4800,490,4320,490C3840,490,3360,490,2880,490C2400,490,1920,490,1440,490C960,490,480,490,240,490L0,490Z"/></svg>